<svg width="1024" height="1024" viewBox="0 0 1024 1024" fill="none" xmlns="http://www.w3.org/2000/svg">
<path fill-rule="evenodd" clip-rule="evenodd" d="M43.0183 306.252H157.867C45.5111 358.874 104.77 538.548 246.044 536.652C382.104 540.919 446.578 364.089 335.644 306.252H384V187.733H115.754C86.4357 223.517 61.8692 263.345 43.0183 306.252ZM453.215 3.33803V674.133C457.007 789.807 564.148 795.496 639.052 758.993L636.207 679.822C628.622 683.141 624.356 684.563 615.822 686.459C607.763 687.407 604.919 687.407 597.333 686.459C578.37 683.141 573.156 671.289 572.682 664.178V3.55838C552.781 1.20855 532.532 0 512 0C492.12 0 472.505 1.13303 453.215 3.33803ZM302.459 363.141C302.459 394.036 277.414 419.081 246.519 419.081C215.623 419.081 190.578 394.036 190.578 363.141C190.578 332.246 215.623 307.2 246.519 307.2C277.414 307.2 302.459 332.246 302.459 363.141ZM786.015 251.259L807.348 420.03C846.222 414.815 858.548 350.815 824.415 275.911L900.741 261.689C946.252 371.674 929.659 505.363 807.822 535.704C706.37 548.978 652.326 489.719 636.207 420.504C612.978 301.511 691.2 243.2 786.015 251.259ZM736.237 337.541L755.2 424.77C722.489 425.719 702.104 406.282 701.156 383.052C701.63 355.082 713.481 345.6 736.237 337.541Z" fill="#0A0A0A"/>
</svg>
