<svg xmlns="http://www.w3.org/2000/svg" xmlns:xlink="http://www.w3.org/1999/xlink" width="810" viewBox="0 0 810 810" height="810" version="1.0"><defs><g id="a"><path d="M 10.46875 -103.40625 L 52.53125 -103.40625 L 52.53125 -82.046875 C 57.28125 -90.285156 62.6875 -96.390625 68.75 -100.359375 C 74.820312 -104.335938 82.046875 -106.328125 90.421875 -106.328125 C 98.648438 -106.328125 105.800781 -104.269531 111.875 -100.15625 C 117.945312 -96.039062 122.519531 -90.492188 125.59375 -83.515625 C 134.519531 -98.722656 147.492188 -106.328125 164.515625 -106.328125 C 172.609375 -106.328125 179.691406 -104.164062 185.765625 -99.84375 C 191.835938 -95.519531 196.546875 -89.273438 199.890625 -81.109375 C 203.242188 -72.941406 204.921875 -63.347656 204.921875 -52.328125 L 204.921875 0 L 160.75 0 L 160.75 -52.328125 C 160.75 -59.441406 159.523438 -64.8125 157.078125 -68.4375 C 154.640625 -72.070312 151.257812 -73.890625 146.9375 -73.890625 C 142.195312 -73.890625 138.113281 -71.863281 134.6875 -67.8125 C 131.269531 -63.769531 129.5625 -58.890625 129.5625 -53.171875 L 129.5625 0 L 85.8125 0 L 85.8125 -52.328125 C 85.8125 -59.441406 84.585938 -64.8125 82.140625 -68.4375 C 79.703125 -72.070312 76.253906 -73.890625 71.796875 -73.890625 C 67.046875 -73.890625 62.992188 -71.863281 59.640625 -67.8125 C 56.296875 -63.769531 54.625 -58.890625 54.625 -53.171875 L 54.625 0 L 10.46875 0 Z M 10.46875 -103.40625"/></g><g id="b"><path d="M 66.140625 47.9375 C 58.460938 47.9375 51.140625 47.164062 44.171875 45.625 L 47.515625 14.65625 C 52.953125 15.488281 57.972656 15.90625 62.578125 15.90625 C 70.816406 15.90625 77.097656 13.425781 81.421875 8.46875 C 85.742188 3.519531 87.976562 -5.789062 88.125 -19.46875 C 80.863281 -5.507812 69.210938 1.46875 53.171875 1.46875 C 39.628906 1.46875 29.054688 -3.304688 21.453125 -12.859375 C 13.847656 -22.421875 10.046875 -35.644531 10.046875 -52.53125 L 10.046875 -104.859375 L 54 -104.859375 L 54 -46.046875 C 54 -41.304688 55.320312 -37.363281 57.96875 -34.21875 C 60.625 -31.082031 64.253906 -29.515625 68.859375 -29.515625 C 73.609375 -29.515625 77.484375 -31.535156 80.484375 -35.578125 C 83.484375 -39.628906 84.984375 -44.929688 84.984375 -51.484375 L 84.984375 -104.859375 L 129.140625 -104.859375 L 129.140625 -26.578125 C 129.140625 -2.296875 123.695312 16.191406 112.8125 28.890625 C 101.9375 41.585938 86.378906 47.9375 66.140625 47.9375 Z M 66.140625 47.9375"/></g><g id="c"><path d="M 10.46875 -103.40625 L 54.625 -103.40625 L 54.625 -85.1875 C 61.320312 -99.28125 72.695312 -106.328125 88.75 -106.328125 C 98.09375 -106.328125 106.707031 -103.988281 114.59375 -99.3125 C 122.476562 -94.644531 128.6875 -88.191406 133.21875 -79.953125 C 137.757812 -71.722656 140.03125 -62.515625 140.03125 -52.328125 C 140.03125 -42.140625 137.691406 -32.925781 133.015625 -24.6875 C 128.335938 -16.457031 122.054688 -10.003906 114.171875 -5.328125 C 106.296875 -0.660156 97.890625 1.671875 88.953125 1.671875 C 73.046875 1.671875 61.601562 -5.375 54.625 -19.46875 L 54.625 27.203125 L 10.46875 35.578125 Z M 75.5625 -31.390625 C 81.28125 -31.390625 86.160156 -33.484375 90.203125 -37.671875 C 94.253906 -41.859375 96.28125 -46.742188 96.28125 -52.328125 C 96.28125 -58.191406 94.222656 -63.144531 90.109375 -67.1875 C 85.992188 -71.238281 81.144531 -73.265625 75.5625 -73.265625 C 69.84375 -73.265625 64.957031 -71.273438 60.90625 -67.296875 C 56.863281 -63.316406 54.84375 -58.609375 54.84375 -53.171875 L 54.84375 -52.328125 C 54.84375 -46.460938 56.898438 -41.503906 61.015625 -37.453125 C 65.128906 -33.410156 69.976562 -31.390625 75.5625 -31.390625 Z M 75.5625 -31.390625"/></g><g id="d"><path d="M 47.296875 1.671875 C 35.441406 1.671875 26.269531 -2.054688 19.78125 -9.515625 C 13.289062 -16.984375 10.046875 -27.207031 10.046875 -40.1875 L 10.046875 -137.9375 L 54.21875 -144.421875 L 54.21875 -43.328125 C 54.21875 -39.421875 55.15625 -36.59375 57.03125 -34.84375 C 58.914062 -33.101562 62.234375 -32.234375 66.984375 -32.234375 C 70.472656 -32.234375 73.890625 -33.070312 77.234375 -34.75 L 78.703125 -5.4375 C 69.347656 -0.695312 58.878906 1.671875 47.296875 1.671875 Z M 47.296875 1.671875"/></g><g id="e"><path d="M 64.671875 1.671875 C 53.085938 1.671875 42.796875 -0.660156 33.796875 -5.328125 C 24.796875 -10.003906 17.785156 -16.425781 12.765625 -24.59375 C 7.742188 -32.757812 5.234375 -42.003906 5.234375 -52.328125 C 5.234375 -62.929688 7.8125 -72.347656 12.96875 -80.578125 C 18.132812 -88.816406 25.113281 -95.164062 33.90625 -99.625 C 42.695312 -104.09375 52.46875 -106.328125 63.21875 -106.328125 C 73.539062 -106.328125 82.363281 -104.054688 89.6875 -99.515625 C 97.007812 -94.984375 102.484375 -88.84375 106.109375 -81.09375 C 109.742188 -73.351562 111.5625 -64.671875 111.5625 -55.046875 C 111.5625 -52.535156 111.421875 -50.722656 111.140625 -49.609375 L 48.34375 -41.4375 C 50.019531 -36.5625 52.742188 -33.039062 56.515625 -30.875 C 60.285156 -28.707031 65.238281 -27.625 71.375 -27.625 C 80.863281 -27.625 91.117188 -30.066406 102.140625 -34.953125 L 107.375 -6.90625 C 94.394531 -1.1875 80.160156 1.671875 64.671875 1.671875 Z M 79.125 -67.8125 C 76.882812 -76.601562 71.582031 -81 63.21875 -81 C 58.1875 -81 54.207031 -79.113281 51.28125 -75.34375 C 48.351562 -71.582031 46.816406 -66.703125 46.671875 -60.703125 Z M 79.125 -67.8125"/></g></defs><g fill="#F5F5F5"><use x="57.223" y="459.41" xmlns:xlink="http://www.w3.org/1999/xlink" xlink:href="#a" xlink:type="simple" xlink:actuate="onLoad" xlink:show="embed"/></g><g fill="#F5F5F5"><use x="271.982" y="459.41" xmlns:xlink="http://www.w3.org/1999/xlink" xlink:href="#b" xlink:type="simple" xlink:actuate="onLoad" xlink:show="embed"/></g><g fill="#F7AF9D"><use x="411.797" y="459.41" xmlns:xlink="http://www.w3.org/1999/xlink" xlink:href="#c" xlink:type="simple" xlink:actuate="onLoad" xlink:show="embed"/></g><g fill="#F7AF9D"><use x="557.272" y="459.41" xmlns:xlink="http://www.w3.org/1999/xlink" xlink:href="#d" xlink:type="simple" xlink:actuate="onLoad" xlink:show="embed"/></g><g fill="#F7AF9D"><use x="636.394" y="459.41" xmlns:xlink="http://www.w3.org/1999/xlink" xlink:href="#e" xlink:type="simple" xlink:actuate="onLoad" xlink:show="embed"/></g></svg>