<svg xmlns="http://www.w3.org/2000/svg" xmlns:xlink="http://www.w3.org/1999/xlink" width="810" viewBox="0 0 810 810" height="810" version="1.0"><defs><g id="a"><path d="M 10.609375 -104.875 L 53.296875 -104.875 L 53.296875 -83.21875 C 58.109375 -91.570312 63.59375 -97.765625 69.75 -101.796875 C 75.90625 -105.835938 83.226562 -107.859375 91.71875 -107.859375 C 100.070312 -107.859375 107.328125 -105.769531 113.484375 -101.59375 C 119.640625 -97.414062 124.273438 -91.789062 127.390625 -84.71875 C 136.441406 -100.144531 149.601562 -107.859375 166.875 -107.859375 C 175.082031 -107.859375 182.265625 -105.660156 188.421875 -101.265625 C 194.578125 -96.878906 199.351562 -90.546875 202.75 -82.265625 C 206.15625 -73.984375 207.859375 -64.253906 207.859375 -53.078125 L 207.859375 0 L 163.0625 0 L 163.0625 -53.078125 C 163.0625 -60.296875 161.820312 -65.742188 159.34375 -69.421875 C 156.863281 -73.109375 153.429688 -74.953125 149.046875 -74.953125 C 144.234375 -74.953125 140.09375 -72.894531 136.625 -68.78125 C 133.15625 -64.675781 131.421875 -59.722656 131.421875 -53.921875 L 131.421875 0 L 87.046875 0 L 87.046875 -53.078125 C 87.046875 -60.296875 85.804688 -65.742188 83.328125 -69.421875 C 80.847656 -73.109375 77.347656 -74.953125 72.828125 -74.953125 C 68.015625 -74.953125 63.90625 -72.894531 60.5 -68.78125 C 57.101562 -64.675781 55.40625 -59.722656 55.40625 -53.921875 L 55.40625 0 L 10.609375 0 Z M 10.609375 -104.875"/></g><g id="b"><path d="M 67.09375 48.625 C 59.300781 48.625 51.867188 47.84375 44.796875 46.28125 L 48.1875 14.859375 C 53.707031 15.710938 58.804688 16.140625 63.484375 16.140625 C 71.835938 16.140625 78.207031 13.625 82.59375 8.59375 C 86.976562 3.570312 89.242188 -5.875 89.390625 -19.75 C 82.023438 -5.59375 70.203125 1.484375 53.921875 1.484375 C 40.191406 1.484375 29.46875 -3.359375 21.75 -13.046875 C 14.039062 -22.742188 10.1875 -36.160156 10.1875 -53.296875 L 10.1875 -106.375 L 54.78125 -106.375 L 54.78125 -46.703125 C 54.78125 -41.890625 56.125 -37.890625 58.8125 -34.703125 C 61.5 -31.523438 65.175781 -29.9375 69.84375 -29.9375 C 74.65625 -29.9375 78.582031 -31.988281 81.625 -36.09375 C 84.675781 -40.195312 86.203125 -45.578125 86.203125 -52.234375 L 86.203125 -106.375 L 131 -106.375 L 131 -26.96875 C 131 -2.332031 125.476562 16.421875 114.4375 29.296875 C 103.394531 42.179688 87.613281 48.625 67.09375 48.625 Z M 67.09375 48.625"/></g><g id="c"><path d="M 10.609375 -104.875 L 55.40625 -104.875 L 55.40625 -86.40625 C 62.207031 -100.707031 73.742188 -107.859375 90.015625 -107.859375 C 99.503906 -107.859375 108.242188 -105.484375 116.234375 -100.734375 C 124.234375 -95.992188 130.53125 -89.445312 135.125 -81.09375 C 139.726562 -72.75 142.03125 -63.410156 142.03125 -53.078125 C 142.03125 -42.742188 139.660156 -33.398438 134.921875 -25.046875 C 130.179688 -16.703125 123.8125 -10.15625 115.8125 -5.40625 C 107.820312 -0.664062 99.296875 1.703125 90.234375 1.703125 C 74.097656 1.703125 62.488281 -5.445312 55.40625 -19.75 L 55.40625 27.59375 L 10.609375 36.09375 Z M 76.640625 -31.84375 C 82.441406 -31.84375 87.394531 -33.960938 91.5 -38.203125 C 95.601562 -42.453125 97.65625 -47.410156 97.65625 -53.078125 C 97.65625 -59.023438 95.566406 -64.050781 91.390625 -68.15625 C 87.222656 -72.257812 82.304688 -74.3125 76.640625 -74.3125 C 70.835938 -74.3125 65.882812 -72.289062 61.78125 -68.25 C 57.675781 -64.21875 55.625 -59.441406 55.625 -53.921875 L 55.625 -53.078125 C 55.625 -47.128906 57.710938 -42.101562 61.890625 -38 C 66.066406 -33.894531 70.984375 -31.84375 76.640625 -31.84375 Z M 76.640625 -31.84375"/></g><g id="d"><path d="M 47.984375 1.703125 C 35.953125 1.703125 26.644531 -2.082031 20.0625 -9.65625 C 13.476562 -17.226562 10.1875 -27.597656 10.1875 -40.765625 L 10.1875 -139.90625 L 54.984375 -146.5 L 54.984375 -43.953125 C 54.984375 -39.984375 55.9375 -37.113281 57.84375 -35.34375 C 59.757812 -33.582031 63.125 -32.703125 67.9375 -32.703125 C 71.476562 -32.703125 74.945312 -33.550781 78.34375 -35.25 L 79.828125 -5.515625 C 70.347656 -0.703125 59.734375 1.703125 47.984375 1.703125 Z M 47.984375 1.703125"/></g><g id="e"><path d="M 65.609375 1.703125 C 53.859375 1.703125 43.414062 -0.664062 34.28125 -5.40625 C 25.15625 -10.15625 18.046875 -16.664062 12.953125 -24.9375 C 7.859375 -33.21875 5.3125 -42.597656 5.3125 -53.078125 C 5.3125 -63.835938 7.925781 -73.390625 13.15625 -81.734375 C 18.394531 -90.085938 25.472656 -96.53125 34.390625 -101.0625 C 43.304688 -105.59375 53.21875 -107.859375 64.125 -107.859375 C 74.59375 -107.859375 83.539062 -105.554688 90.96875 -100.953125 C 98.40625 -96.347656 103.960938 -90.117188 107.640625 -82.265625 C 111.316406 -74.410156 113.15625 -65.601562 113.15625 -55.84375 C 113.15625 -53.289062 113.015625 -51.445312 112.734375 -50.3125 L 49.046875 -42.03125 C 50.742188 -37.082031 53.503906 -33.507812 57.328125 -31.3125 C 61.148438 -29.125 66.175781 -28.03125 72.40625 -28.03125 C 82.019531 -28.03125 92.421875 -30.503906 103.609375 -35.453125 L 108.921875 -7 C 95.753906 -1.195312 81.316406 1.703125 65.609375 1.703125 Z M 80.25 -68.796875 C 77.988281 -77.710938 72.613281 -82.171875 64.125 -82.171875 C 59.019531 -82.171875 54.984375 -80.257812 52.015625 -76.4375 C 49.046875 -72.613281 47.488281 -67.660156 47.34375 -61.578125 Z M 80.25 -68.796875"/></g><g id="f"><path d="M 49.140625 1.734375 C 36.816406 1.734375 27.285156 -2.140625 20.546875 -9.890625 C 13.804688 -17.640625 10.4375 -28.253906 10.4375 -41.734375 L 10.4375 -143.265625 L 56.3125 -150.015625 L 56.3125 -45 C 56.3125 -40.945312 57.285156 -38.015625 59.234375 -36.203125 C 61.191406 -34.390625 64.632812 -33.484375 69.5625 -33.484375 C 73.1875 -33.484375 76.738281 -34.351562 80.21875 -36.09375 L 81.75 -5.65625 C 72.03125 -0.726562 61.160156 1.734375 49.140625 1.734375 Z M 49.140625 1.734375"/></g><g id="g"><path d="M 107.40625 10.875 L 107.40625 56.75 L 88.484375 56.75 C 103.117188 63.695312 110.4375 75.507812 110.4375 92.1875 C 110.4375 101.894531 108.007812 110.84375 103.15625 119.03125 C 98.300781 127.21875 91.597656 133.664062 83.046875 138.375 C 74.492188 143.082031 64.929688 145.4375 54.359375 145.4375 C 43.773438 145.4375 34.207031 143.007812 25.65625 138.15625 C 17.101562 133.300781 10.398438 126.78125 5.546875 118.59375 C 0.691406 110.40625 -1.734375 101.671875 -1.734375 92.390625 C -1.734375 75.867188 5.582031 63.988281 20.21875 56.75 L -28.265625 56.75 L -36.953125 10.875 Z M 32.609375 78.484375 C 32.609375 84.421875 34.78125 89.488281 39.125 93.6875 C 43.476562 97.894531 48.554688 100 54.359375 100 C 60.441406 100 65.582031 97.863281 69.78125 93.59375 C 73.988281 89.320312 76.09375 84.285156 76.09375 78.484375 C 76.09375 72.535156 74.023438 67.457031 69.890625 63.25 C 65.765625 59.050781 60.875 56.953125 55.21875 56.953125 L 54.359375 56.953125 C 48.265625 56.953125 43.113281 59.085938 38.90625 63.359375 C 34.707031 67.640625 32.609375 72.679688 32.609375 78.484375 Z M 32.609375 78.484375"/></g><g id="h"><path d="M 1.734375 -67.171875 C 1.734375 -55.148438 -0.691406 -44.460938 -5.546875 -35.109375 C -10.398438 -25.765625 -17.066406 -18.484375 -25.546875 -13.265625 C -34.023438 -8.046875 -43.628906 -5.4375 -54.359375 -5.4375 C -65.367188 -5.4375 -75.148438 -8.113281 -83.703125 -13.46875 C -92.253906 -18.832031 -98.847656 -26.082031 -103.484375 -35.21875 C -108.117188 -44.351562 -110.4375 -54.5 -110.4375 -65.65625 C -110.4375 -76.382812 -108.082031 -85.550781 -103.375 -93.15625 C -98.664062 -100.769531 -92.285156 -106.457031 -84.234375 -110.21875 C -76.191406 -113.988281 -67.171875 -115.875 -57.171875 -115.875 C -54.566406 -115.875 -52.6875 -115.726562 -51.53125 -115.4375 L -43.046875 -50.21875 C -37.972656 -51.957031 -34.3125 -54.78125 -32.0625 -58.6875 C -29.820312 -62.601562 -28.703125 -67.753906 -28.703125 -74.140625 C -28.703125 -83.992188 -31.238281 -94.644531 -36.3125 -106.09375 L -7.171875 -111.53125 C -1.234375 -98.050781 1.734375 -83.265625 1.734375 -67.171875 Z M -70.4375 -82.171875 C -79.570312 -79.859375 -84.140625 -74.351562 -84.140625 -65.65625 C -84.140625 -60.4375 -82.179688 -56.304688 -78.265625 -53.265625 C -74.347656 -50.222656 -69.273438 -48.628906 -63.046875 -48.484375 Z M -70.4375 -82.171875"/></g></defs><g fill="#F5F5F5"><use x="52.242" y="685.124" xmlns:xlink="http://www.w3.org/1999/xlink" xlink:href="#a" xlink:type="simple" xlink:actuate="onLoad" xlink:show="embed"/></g><g fill="#F5F5F5"><use x="270.08" y="685.124" xmlns:xlink="http://www.w3.org/1999/xlink" xlink:href="#b" xlink:type="simple" xlink:actuate="onLoad" xlink:show="embed"/></g><g fill="#F7AF9D"><use x="411.902" y="685.124" xmlns:xlink="http://www.w3.org/1999/xlink" xlink:href="#c" xlink:type="simple" xlink:actuate="onLoad" xlink:show="embed"/></g><g fill="#F7AF9D"><use x="559.463" y="685.124" xmlns:xlink="http://www.w3.org/1999/xlink" xlink:href="#d" xlink:type="simple" xlink:actuate="onLoad" xlink:show="embed"/></g><g fill="#F7AF9D"><use x="639.719" y="685.124" xmlns:xlink="http://www.w3.org/1999/xlink" xlink:href="#e" xlink:type="simple" xlink:actuate="onLoad" xlink:show="embed"/></g><path fill="#F5F5F5" d="M 405.058594 101.785156 C 296.117188 101.785156 207.808594 190.097656 207.808594 299.035156 C 207.808594 407.972656 296.117188 496.285156 405.058594 496.285156 C 513.996094 496.285156 602.304688 407.972656 602.304688 299.035156 C 602.304688 190.097656 513.996094 101.785156 405.058594 101.785156 Z M 405.058594 101.785156"/><g fill="#0A0A0A"><use x="371.568" y="399.063" xmlns:xlink="http://www.w3.org/1999/xlink" xlink:href="#f" xlink:type="simple" xlink:actuate="onLoad" xlink:show="embed"/></g><path fill="#0A0A0A" d="M 382.003906 81 L 427.753906 81 L 427.753906 274.5 L 382.003906 274.5 Z M 382.003906 81"/><g fill="#0A0A0A"><use x="247.637" y="162.716" xmlns:xlink="http://www.w3.org/1999/xlink" xlink:href="#g" xlink:type="simple" xlink:actuate="onLoad" xlink:show="embed"/></g><g fill="#0A0A0A"><use x="561.698" y="313.756" xmlns:xlink="http://www.w3.org/1999/xlink" xlink:href="#h" xlink:type="simple" xlink:actuate="onLoad" xlink:show="embed"/></g></svg>