<svg width="24" height="24" viewBox="0 0 24 24" fill="none" xmlns="http://www.w3.org/2000/svg">
<path d="M4.71616 2C5.58438 2 6.28821 2.70383 6.28821 3.57205V15.6741C6.28821 15.8679 6.30318 16.0623 6.37083 16.2439C6.55164 16.7291 7.0848 17.6784 8.48908 17.6784C9.98483 17.6784 10.4264 16.6015 10.5451 16.1554C10.5786 16.0298 10.5852 15.9002 10.5852 15.7703V5.2C10.5852 3.43269 12.0178 2 13.7852 2H19.2838C21.8885 2 24 4.02484 24 6.52261V17.4774C24 19.9752 21.8885 22 19.2838 22C18.242 22 17.3974 21.1554 17.3974 20.1135V11.8287C17.3974 11.719 17.3929 11.6095 17.3649 11.5034C17.2617 11.112 16.8495 10.1407 15.3013 10.1407C13.8718 10.1407 13.3539 10.9687 13.1804 11.4038C13.113 11.5727 13.1004 11.7554 13.1004 11.9372V18.8C13.1004 20.5673 11.6677 22 9.90044 22H4.71616C2.1115 22 0 19.9752 0 17.4774V6.52261C0 4.02484 2.1115 2 4.71616 2Z" fill="white"/>
</svg>
