<svg xmlns="http://www.w3.org/2000/svg" xmlns:xlink="http://www.w3.org/1999/xlink" width="810" viewBox="0 0 810 810" height="810" version="1.0"><defs><g id="a"><path d="M 100.59375 3.5625 C 75.363281 3.5625 55.847656 -4.375 42.046875 -20.25 C 28.253906 -36.125 21.359375 -57.859375 21.359375 -85.453125 L 21.359375 -293.3125 L 115.28125 -307.109375 L 115.28125 -92.125 C 115.28125 -83.820312 117.28125 -77.816406 121.28125 -74.109375 C 125.289062 -70.398438 132.335938 -68.546875 142.421875 -68.546875 C 149.835938 -68.546875 157.109375 -70.328125 164.234375 -73.890625 L 167.34375 -11.578125 C 147.46875 -1.484375 125.21875 3.5625 100.59375 3.5625 Z M 100.59375 3.5625"/></g><g id="b"><path d="M 220.359375 22.296875 L 220.359375 116.421875 L 181.546875 116.421875 C 211.585938 130.703125 226.609375 154.941406 226.609375 189.140625 C 226.609375 209.066406 221.625 227.429688 211.65625 244.234375 C 201.695312 261.035156 187.941406 274.265625 170.390625 283.921875 C 152.847656 293.585938 133.222656 298.421875 111.515625 298.421875 C 89.804688 298.421875 70.175781 293.4375 52.625 283.46875 C 35.082031 273.507812 21.332031 260.128906 11.375 243.328125 C 1.414062 226.523438 -3.5625 208.609375 -3.5625 189.578125 C -3.5625 155.679688 11.453125 131.296875 41.484375 116.421875 L -57.984375 116.421875 L -75.828125 22.296875 Z M 66.90625 161.03125 C 66.90625 173.226562 71.363281 183.640625 80.28125 192.265625 C 89.207031 200.890625 99.617188 205.203125 111.515625 205.203125 C 124.003906 205.203125 134.5625 200.8125 143.1875 192.03125 C 151.8125 183.257812 156.125 172.925781 156.125 161.03125 C 156.125 148.84375 151.882812 138.4375 143.40625 129.8125 C 134.9375 121.1875 124.898438 116.875 113.296875 116.875 L 111.515625 116.875 C 99.023438 116.875 88.46875 121.257812 79.84375 130.03125 C 71.21875 138.800781 66.90625 149.132812 66.90625 161.03125 Z M 66.90625 161.03125"/></g><g id="c"><path d="M 3.5625 -137.84375 C 3.5625 -113.15625 -1.414062 -91.21875 -11.375 -72.03125 C -21.332031 -52.851562 -35.007812 -37.910156 -52.40625 -27.203125 C -69.8125 -16.503906 -89.515625 -11.15625 -111.515625 -11.15625 C -134.117188 -11.15625 -154.191406 -16.65625 -171.734375 -27.65625 C -189.285156 -38.65625 -202.816406 -53.523438 -212.328125 -72.265625 C -221.847656 -91.003906 -226.609375 -111.820312 -226.609375 -134.71875 C -226.609375 -156.71875 -221.773438 -175.523438 -212.109375 -191.140625 C -202.441406 -206.753906 -189.351562 -218.425781 -172.84375 -226.15625 C -156.34375 -233.894531 -137.832031 -237.765625 -117.3125 -237.765625 C -111.96875 -237.765625 -108.101562 -237.46875 -105.71875 -236.875 L -88.328125 -103.046875 C -77.910156 -106.609375 -70.394531 -112.40625 -65.78125 -120.4375 C -61.175781 -128.46875 -58.875 -139.023438 -58.875 -152.109375 C -58.875 -172.335938 -64.082031 -194.195312 -74.5 -217.6875 L -14.71875 -228.84375 C -2.53125 -201.1875 3.5625 -170.851562 3.5625 -137.84375 Z M -144.53125 -168.625 C -163.257812 -163.863281 -172.625 -152.5625 -172.625 -134.71875 C -172.625 -124.007812 -168.609375 -115.53125 -160.578125 -109.28125 C -152.554688 -103.039062 -142.148438 -99.769531 -129.359375 -99.46875 Z M -144.53125 -168.625"/></g></defs><path fill="#0A0A0A" d="M 405.402344 0.9375 C 182.140625 0.9375 1.152344 181.925781 1.152344 405.1875 C 1.152344 628.449219 182.140625 809.4375 405.402344 809.4375 C 628.664062 809.4375 809.652344 628.449219 809.652344 405.1875 C 809.652344 181.925781 628.664062 0.9375 405.402344 0.9375 Z M 405.402344 0.9375"/><g fill="#F5F5F5"><use x="337.174" y="609.682" xmlns:xlink="http://www.w3.org/1999/xlink" xlink:href="#a" xlink:type="simple" xlink:actuate="onLoad" xlink:show="embed"/></g><path fill="#F5F5F5" d="M 358.558594 0.9375 L 452.308594 0.9375 L 452.308594 354.1875 L 358.558594 354.1875 Z M 358.558594 0.9375"/><g fill="#F5F5F5"><use x="83.151" y="125.947" xmlns:xlink="http://www.w3.org/1999/xlink" xlink:href="#b" xlink:type="simple" xlink:actuate="onLoad" xlink:show="embed"/></g><g fill="#F5F5F5"><use x="726.977" y="435.843" xmlns:xlink="http://www.w3.org/1999/xlink" xlink:href="#c" xlink:type="simple" xlink:actuate="onLoad" xlink:show="embed"/></g></svg>