<svg width="256" height="256" viewBox="0 0 256 256" fill="none" xmlns="http://www.w3.org/2000/svg">
<path d="M192 0H64C28.6538 0 0 28.6538 0 64V192C0 227.346 28.6538 256 64 256H192C227.346 256 256 227.346 256 192V64C256 28.6538 227.346 0 192 0Z" fill="url(#paint0_linear_945_21)"/>
<path d="M79.441 61.25C85.2293 61.25 89.9215 65.9422 89.9215 71.7302V152.411C89.9215 153.703 90.0213 154.999 90.4723 156.209C91.6775 159.444 95.232 165.773 104.594 165.773C114.566 165.773 117.509 158.593 118.301 155.619C118.524 154.782 118.568 153.918 118.568 153.052V82.5833C118.568 70.8013 128.119 61.25 139.901 61.25H176.559C193.923 61.25 208 74.749 208 91.4007V164.432C208 181.084 193.923 194.583 176.559 194.583C169.613 194.583 163.982 188.953 163.982 182.007V126.775C163.982 126.043 163.953 125.313 163.766 124.606C163.078 121.997 160.33 115.521 150.009 115.521C140.479 115.521 137.026 121.042 135.869 123.942C135.42 125.068 135.336 126.286 135.336 127.498V173.25C135.336 185.032 125.785 194.583 114.003 194.583H79.441C62.0768 194.583 48 181.084 48 164.432V91.4007C48 74.749 62.0768 61.25 79.441 61.25Z" fill="url(#paint1_linear_945_21)"/>
<defs>
<linearGradient id="paint0_linear_945_21" x1="256" y1="256" x2="0" y2="0" gradientUnits="userSpaceOnUse">
<stop/>
<stop offset="0.825" stop-color="#202020"/>
</linearGradient>
<linearGradient id="paint1_linear_945_21" x1="48" y1="61.25" x2="209.074" y2="190.049" gradientUnits="userSpaceOnUse">
<stop offset="0.191573" stop-color="white"/>
<stop offset="1" stop-color="#999999"/>
</linearGradient>
</defs>
</svg>
